<svg xmlns="http://www.w3.org/2000/svg" version="1.1" xmlns:xlink="http://www.w3.org/1999/xlink" xmlns:svgjs="http://svgjs.dev/svgjs" width="2000" height="1500" viewBox="0 0 2000 1500"><rect width="2000" height="1500" fill="#000000"></rect><g transform="matrix(0.75,0,0,0.75,249.090909090909,594.9357200062078)"><svg viewBox="0 0 396 82" data-background-color="#ffffff" preserveAspectRatio="xMidYMid meet" height="414" width="2000" xmlns="http://www.w3.org/2000/svg" xmlns:xlink="http://www.w3.org/1999/xlink"><g id="tight-bounds" transform="matrix(1,0,0,1,0.2400000000000091,-0.04904682933667459)"><svg viewBox="0 0 395.52 82.09809365867333" height="82.09809365867333" width="395.52"><g><svg viewBox="0 0 514.9138638129359 106.8806801614679" height="82.09809365867333" width="395.52"><g transform="matrix(1,0,0,1,119.39386381293596,16.989164100750628)"><svg viewBox="0 0 395.52 72.90235195996664" height="72.90235195996664" width="395.52"><g id="textblocktransform"><svg viewBox="0 0 395.52 72.90235195996664" height="72.90235195996664" width="395.52" id="textblock"><g><svg viewBox="0 0 395.52 72.90235195996664" height="72.90235195996664" width="395.52"><g transform="matrix(1,0,0,1,0,0)"><svg width="395.52" viewBox="2.3 -33 239.78 44.2" height="72.90235195996664" data-palette-color="#ff2f0a"><path d="M9.2-0.5L9.2-0.5 9.45-0.5 9.45 0 2.3 0 2.3-0.5 2.55-0.5Q2.95-0.5 3.25-0.78 3.55-1.05 3.78-1.45 4-1.85 4.1-2.3 4.2-2.75 4.2-3.15L4.2-3.15 4.2-29.9Q4.2-30.25 4.1-30.7 4-31.15 3.8-31.55 3.6-31.95 3.28-32.23 2.95-32.5 2.55-32.5L2.55-32.5 2.3-32.5 2.3-33 21.5-33 21.5-28.35 21-28.35Q21-29.5 20.23-30.38 19.45-31.25 17.8-31.25L17.8-31.25 7.55-31.25 7.55-18.6 15.85-18.6Q17-18.6 17.78-19.3 18.55-20 18.55-20.95L18.55-20.95 19.05-20.95 19.05-14.7 18.55-14.7Q18.55-15.6 17.8-16.25 17.05-16.9 15.85-16.9L15.85-16.9 7.55-16.9 7.55-3.15Q7.55-2.75 7.65-2.3 7.75-1.85 7.98-1.45 8.2-1.05 8.5-0.78 8.8-0.5 9.2-0.5ZM32.45 0L25.95 0 25.95-0.5Q26.35-0.5 26.65-0.8 26.95-1.1 27.15-1.5 27.35-1.9 27.45-2.38 27.55-2.85 27.55-3.25L27.55-3.25 27.55-17.1Q27.55-17.95 27.3-18.73 27.05-19.5 25.85-19.55L25.85-19.55 25.85-20 30.85-21.6 30.85-3.25Q30.85-2.85 30.95-2.38 31.05-1.9 31.25-1.5 31.45-1.1 31.75-0.8 32.05-0.5 32.45-0.5L32.45-0.5 32.45 0ZM26.2-26.4L26.2-26.4Q26.2-27.4 26.87-28.1 27.55-28.8 28.55-28.8L28.55-28.8Q29.55-28.8 30.25-28.1 30.95-27.4 30.95-26.4L30.95-26.4Q30.95-25.4 30.25-24.75 29.55-24.1 28.55-24.1L28.55-24.1Q27.55-24.1 26.87-24.75 26.2-25.4 26.2-26.4ZM51.5-20.4L50-17.35Q49.4-18.35 48.75-18.6 48.09-18.85 47.25-18.85L47.25-18.85Q46.7-18.85 46.07-18.6 45.45-18.35 44.84-17.95 44.25-17.55 43.67-17.07 43.09-16.6 42.7-16.2L42.7-16.2 42.7-3.2Q42.7-2.8 42.8-2.35 42.9-1.9 43.12-1.48 43.34-1.05 43.62-0.78 43.9-0.5 44.3-0.5L44.3-0.5 44.3 0 37.8 0 37.8-0.5Q38.15-0.5 38.45-0.78 38.75-1.05 38.97-1.48 39.2-1.9 39.3-2.35 39.4-2.8 39.4-3.2L39.4-3.2 39.4-17.15Q39.4-17.85 38.95-18.55 38.5-19.25 37.65-19.45L37.65-19.45 37.65-19.85 42.7-21.35 42.7-18.35Q43.15-18.9 43.65-19.43 44.15-19.95 44.77-20.38 45.4-20.8 46.15-21.08 46.9-21.35 47.9-21.35L47.9-21.35Q48.59-21.35 49.7-21.05 50.8-20.75 51.5-20.4L51.5-20.4ZM74.74-10.1L57.39-10.1Q57.59-8.35 58.24-6.78 58.89-5.2 59.97-4 61.04-2.8 62.59-2.08 64.14-1.35 66.19-1.35L66.19-1.35Q67.29-1.35 68.52-1.68 69.74-2 70.79-2.6 71.84-3.2 72.67-4.08 73.49-4.95 73.79-6.05L73.79-6.05 74.24-6.05 74.24-2.3Q73.94-2.3 73.57-2.1 73.19-1.9 72.69-1.6L72.69-1.6Q71.69-1 69.99-0.33 68.29 0.35 65.49 0.35L65.49 0.35Q63.24 0.35 61.22-0.3 59.19-0.95 57.64-2.3 56.09-3.65 55.17-5.75 54.24-7.85 54.24-10.75L54.24-10.75Q54.24-12.6 54.87-14.5 55.49-16.4 56.77-17.93 58.04-19.45 60.04-20.4 62.04-21.35 64.84-21.35L64.84-21.35Q67.34-21.35 69.22-20.5 71.09-19.65 72.32-18.15 73.54-16.65 74.14-14.6 74.74-12.55 74.74-10.1L74.74-10.1ZM64.64-19.7L64.64-19.7Q62.89-19.7 61.62-19 60.34-18.3 59.44-17.2 58.54-16.1 58.04-14.7 57.54-13.3 57.39-11.9L57.39-11.9 71.64-11.9Q71.59-13.35 71.12-14.75 70.64-16.15 69.79-17.25 68.94-18.35 67.64-19.03 66.34-19.7 64.64-19.7ZM118.79 0L118.79-0.5 119.04-0.5Q119.39-0.5 119.69-0.8 119.99-1.1 120.21-1.5 120.44-1.9 120.54-2.38 120.64-2.85 120.64-3.25L120.64-3.25 120.64-29.55 107.74 0.55 95.49-28 95.49-3.25Q95.49-2.85 95.59-2.38 95.69-1.9 95.91-1.5 96.14-1.1 96.44-0.8 96.74-0.5 97.14-0.5L97.14-0.5 97.39-0.5 97.39 0 91.94 0 91.94-0.5 92.19-0.5Q92.54-0.5 92.84-0.8 93.14-1.1 93.34-1.5 93.54-1.9 93.64-2.38 93.74-2.85 93.74-3.25L93.74-3.25 93.74-29.9Q93.74-30.25 93.64-30.7 93.54-31.15 93.34-31.55 93.14-31.95 92.84-32.23 92.54-32.5 92.19-32.5L92.19-32.5 91.94-32.5 91.94-33 97.04-33 108.64-5.65 120.24-33 125.89-33 125.89-32.5 125.64-32.5Q125.24-32.5 124.94-32.23 124.64-31.95 124.41-31.55 124.19-31.15 124.09-30.7 123.99-30.25 123.99-29.9L123.99-29.9 123.99-3.25Q123.99-2.85 124.09-2.38 124.19-1.9 124.41-1.5 124.64-1.1 124.94-0.8 125.24-0.5 125.64-0.5L125.64-0.5 125.89-0.5 125.89 0 118.79 0ZM148.79 0L143.94 0 143.94-2.55 143.69-2.3Q142.44-1.05 140.81-0.35 139.19 0.35 136.89 0.35L136.89 0.35Q135.14 0.35 133.89-0.05 132.64-0.45 131.84-1.18 131.04-1.9 130.66-2.85 130.29-3.8 130.29-4.85L130.29-4.85Q130.29-6.55 131.21-7.85 132.14-9.15 133.89-10.15 135.64-11.15 138.16-11.98 140.69-12.8 143.94-13.6L143.94-13.6Q143.84-15.55 143.14-16.75 142.44-17.95 141.49-18.63 140.54-19.3 139.49-19.53 138.44-19.75 137.69-19.75L137.69-19.75Q136.39-19.75 135.41-19.35 134.44-18.95 133.71-18.32 132.99-17.7 132.49-16.98 131.99-16.25 131.69-15.6L131.69-15.6 131.24-15.6 131.24-19.25Q131.64-19.3 131.99-19.5 132.34-19.7 132.84-19.9L132.84-19.9Q133.59-20.2 134.89-20.78 136.19-21.35 138.54-21.35L138.54-21.35Q141.29-21.35 142.99-20.65 144.69-19.95 145.61-18.8 146.54-17.65 146.84-16.18 147.14-14.7 147.14-13.15L147.14-13.15 147.14-3.25Q147.14-2.25 147.59-1.38 148.04-0.5 148.79-0.5L148.79-0.5 148.79 0ZM143.39-4.15L143.94-4.75 143.94-11.9 143.44-11.8Q142.24-11.5 140.51-11 138.79-10.5 137.24-9.7 135.69-8.9 134.59-7.8 133.49-6.7 133.49-5.25L133.49-5.25Q133.49-3.65 134.79-2.6 136.09-1.55 138.19-1.55L138.19-1.55Q139.84-1.55 141.09-2.27 142.34-3 143.39-4.15L143.39-4.15ZM173.68-12.9L173.68-3.25Q173.68-2.85 173.78-2.38 173.88-1.9 174.11-1.5 174.33-1.1 174.61-0.8 174.88-0.5 175.28-0.5L175.28-0.5 175.28 0 168.83 0 168.83-0.5Q169.18-0.5 169.48-0.8 169.78-1.1 170.01-1.5 170.23-1.9 170.33-2.38 170.43-2.85 170.43-3.25L170.43-3.25 170.43-12.55Q170.43-14.35 169.93-15.7 169.43-17.05 168.58-17.95 167.73-18.85 166.66-19.28 165.58-19.7 164.48-19.7L164.48-19.7Q163.38-19.7 162.31-19.25 161.23-18.8 160.41-18.07 159.58-17.35 159.06-16.38 158.53-15.4 158.53-14.35L158.53-14.35 158.53-3.25Q158.53-2.85 158.63-2.38 158.73-1.9 158.96-1.5 159.18-1.1 159.46-0.8 159.73-0.5 160.13-0.5L160.13-0.5 160.13 0 153.63 0 153.63-0.5Q153.98-0.5 154.28-0.8 154.58-1.1 154.81-1.5 155.03-1.9 155.13-2.38 155.23-2.85 155.23-3.25L155.23-3.25 155.23-17.05Q155.23-17.9 154.98-18.68 154.73-19.45 153.53-19.5L153.53-19.5 153.53-19.95 158.53-21.55 158.53-18.8Q158.88-19.2 159.43-19.68 159.98-20.15 160.76-20.58 161.53-21 162.56-21.28 163.58-21.55 164.98-21.55L164.98-21.55Q167.33-21.55 168.98-20.75 170.63-19.95 171.68-18.68 172.73-17.4 173.21-15.88 173.68-14.35 173.68-12.9L173.68-12.9ZM190.58 9.3L190.58 9.3Q192.08 9.3 193.43 9.03 194.78 8.75 195.81 8.25 196.83 7.75 197.43 7.05 198.03 6.35 198.03 5.55L198.03 5.55Q198.03 4.7 197.21 4.1 196.38 3.5 194.98 3.05 193.58 2.6 191.73 2.27 189.88 1.95 187.88 1.6L187.88 1.6 185.33 1.15Q184.18 2.05 183.73 3.05 183.28 4.05 183.28 4.8L183.28 4.8Q183.28 5.85 183.86 6.68 184.43 7.5 185.41 8.1 186.38 8.7 187.71 9 189.03 9.3 190.58 9.3ZM187.08-1.7L193.33-0.7Q195.33-0.4 196.66 0.1 197.98 0.6 198.78 1.28 199.58 1.95 199.88 2.78 200.18 3.6 200.18 4.55L200.18 4.55Q200.18 6.25 199.25 7.5 198.33 8.75 196.86 9.58 195.38 10.4 193.5 10.8 191.63 11.2 189.68 11.2L189.68 11.2Q187.78 11.2 186.03 10.83 184.28 10.45 182.93 9.7 181.58 8.95 180.78 7.83 179.98 6.7 179.98 5.25L179.98 5.25Q179.98 3.95 180.78 2.78 181.58 1.6 183.38 0.45L183.38 0.45Q181.63-0.45 180.71-1.98 179.78-3.5 179.78-5.1L179.78-5.1Q179.78-6.05 180.23-6.98 180.68-7.9 181.68-8.7L181.68-8.7Q180.83-9.7 180.48-10.7 180.13-11.7 180.13-12.85L180.13-12.85Q180.13-14.65 180.88-16.2 181.63-17.75 182.93-18.9 184.23-20.05 185.98-20.7 187.73-21.35 189.73-21.35L189.73-21.35Q191.83-21.35 193.73-20.63 195.63-19.9 196.93-18.75L196.93-18.75 200.53-18.75 200.53-16.95 198.23-16.95Q198.58-16.2 198.93-15.18 199.28-14.15 199.28-13.05L199.28-13.05Q199.28-11.45 198.53-10.03 197.78-8.6 196.46-7.53 195.13-6.45 193.36-5.83 191.58-5.2 189.58-5.2L189.58-5.2Q187.73-5.2 185.98-5.75 184.23-6.3 182.88-7.35L182.88-7.35Q182.33-7 182.13-6.48 181.93-5.95 181.93-5.4L181.93-5.4Q181.93-3.8 183.38-2.93 184.83-2.05 187.08-1.7L187.08-1.7ZM189.13-19.6L189.13-19.6Q187.93-19.6 186.88-19.18 185.83-18.75 185.03-18 184.23-17.25 183.75-16.18 183.28-15.1 183.28-13.75L183.28-13.75Q183.28-12.1 183.96-10.8 184.63-9.5 185.68-8.65 186.73-7.8 188-7.35 189.28-6.9 190.43-6.9L190.43-6.9Q191.68-6.9 192.71-7.38 193.73-7.85 194.48-8.68 195.23-9.5 195.63-10.6 196.03-11.7 196.03-12.9L196.03-12.9Q196.03-14.4 195.43-15.65 194.83-16.9 193.86-17.78 192.88-18.65 191.63-19.13 190.38-19.6 189.13-19.6ZM221.03 0L216.18 0 216.18-2.55 215.93-2.3Q214.68-1.05 213.05-0.35 211.43 0.35 209.13 0.35L209.13 0.35Q207.38 0.35 206.13-0.05 204.88-0.45 204.08-1.18 203.28-1.9 202.9-2.85 202.53-3.8 202.53-4.85L202.53-4.85Q202.53-6.55 203.45-7.85 204.38-9.15 206.13-10.15 207.88-11.15 210.4-11.98 212.93-12.8 216.18-13.6L216.18-13.6Q216.08-15.55 215.38-16.75 214.68-17.95 213.73-18.63 212.78-19.3 211.73-19.53 210.68-19.75 209.93-19.75L209.93-19.75Q208.63-19.75 207.65-19.35 206.68-18.95 205.95-18.32 205.23-17.7 204.73-16.98 204.23-16.25 203.93-15.6L203.93-15.6 203.48-15.6 203.48-19.25Q203.88-19.3 204.23-19.5 204.58-19.7 205.08-19.9L205.08-19.9Q205.83-20.2 207.13-20.78 208.43-21.35 210.78-21.35L210.78-21.35Q213.53-21.35 215.23-20.65 216.93-19.95 217.85-18.8 218.78-17.65 219.08-16.18 219.38-14.7 219.38-13.15L219.38-13.15 219.38-3.25Q219.38-2.25 219.83-1.38 220.28-0.5 221.03-0.5L221.03-0.5 221.03 0ZM215.63-4.15L216.18-4.75 216.18-11.9 215.68-11.8Q214.48-11.5 212.75-11 211.03-10.5 209.48-9.7 207.93-8.9 206.83-7.8 205.73-6.7 205.73-5.25L205.73-5.25Q205.73-3.65 207.03-2.6 208.33-1.55 210.43-1.55L210.43-1.55Q212.08-1.55 213.33-2.27 214.58-3 215.63-4.15L215.63-4.15ZM242.08-5.7L242.08-5.7Q242.08-4.4 241.43-3.3 240.78-2.2 239.65-1.38 238.53-0.55 237.03-0.08 235.53 0.4 233.78 0.4L233.78 0.4Q231.63 0.4 230.28-0.18 228.93-0.75 227.98-1.35L227.98-1.35Q227.33-1.75 226.78-2.02 226.23-2.3 225.58-2.3L225.58-2.3 225.58-6.1 226.08-6.1Q226.23-5.4 226.95-4.58 227.68-3.75 228.7-3.05 229.73-2.35 230.95-1.88 232.18-1.4 233.43-1.4L233.43-1.4Q234.33-1.4 235.28-1.6 236.23-1.8 237-2.25 237.78-2.7 238.3-3.38 238.83-4.05 238.83-5L238.83-5Q238.83-5.95 238.28-6.65 237.73-7.35 236.88-7.88 236.03-8.4 234.93-8.8 233.83-9.2 232.73-9.55L232.73-9.55Q231.43-9.95 230.1-10.45 228.78-10.95 227.73-11.63 226.68-12.3 226.03-13.28 225.38-14.25 225.38-15.6L225.38-15.6Q225.38-16.75 225.8-17.8 226.23-18.85 227.2-19.63 228.18-20.4 229.73-20.88 231.28-21.35 233.48-21.35L233.48-21.35Q235.43-21.35 236.5-21.03 237.58-20.7 238.28-20.35L238.28-20.35Q238.73-20.1 239.18-19.98 239.63-19.85 240.18-19.85L240.18-19.85 240.18-16.35 239.78-16.35Q238.88-18 237.03-18.85 235.18-19.7 233.23-19.7L233.23-19.7Q231.98-19.7 231.08-19.38 230.18-19.05 229.6-18.57 229.03-18.1 228.75-17.5 228.48-16.9 228.48-16.3L228.48-16.3Q228.48-15.45 228.95-14.85 229.43-14.25 230.25-13.8 231.08-13.35 232.1-12.95 233.13-12.55 234.28-12.2L234.28-12.2Q235.68-11.75 237.08-11.23 238.48-10.7 239.58-9.95 240.68-9.2 241.38-8.18 242.08-7.15 242.08-5.7Z" opacity="1" transform="matrix(1,0,0,1,0,0)" fill="#ffffff" class="wordmark-text-0" data-fill-palette-color="primary" id="text-0"></path></svg></g></svg></g></svg></g></svg></g><g><svg viewBox="0 0 102.18336817163488 106.8806801614679" height="106.8806801614679" width="102.18336817163488"><g><svg xmlns="http://www.w3.org/2000/svg" xmlns:xlink="http://www.w3.org/1999/xlink" version="1.1" x="0" y="0" viewBox="14.334999999999996 12.694999999999993 71.33000000000001 74.609" enable-background="new 0 0 100 100" xml:space="preserve" height="106.8806801614679" width="102.18336817163488" class="icon-icon-0" data-fill-palette-color="accent" id="icon-0"><g fill="#ff2f0a" data-fill-palette-color="accent"><path fill="#ffffff" d="M85.665 66.445c0 8.631-3.059 15.561-8.17 20.621-2.229-5.08-5.6-5.871-6.709-15.342-0.125-1.068-0.443-2.09-1.051-2.889-3.715-4.891-1.465 8.984-6.369 3.279-3.135-3.645-9.346-30.67-10.451-21.51-0.281 2.329-9.42 29.051-12.399 20.741-1.45-4.07-2.81-7.57-4.17-8.92-1.56-1.551-2.2 6.939-5.25 11.34-2.181 3.119-5.96 8.459-8.341 13.539-5.26-5.08-8.42-12.09-8.42-20.859 0-7.65 8.746-19.802 12.74-25.68 7.871-11.583 4.48-15.62 6.37-13.74 1.65 1.641 3.29 5.88 5.06 10.82 3.601 10.08 9.16-25.15 15.031-25.15 4.199 0-3.547 6.134 12.66 26.08 3.051 3.756 5.287 0.516 4.449-2.955-0.875-3.625 0.828-6.852 2.375-2.625 0.418 1.14 1.797 3.858 2.186 5.11C78.271 48.195 85.665 56.445 85.665 66.445z" data-fill-palette-color="accent"></path></g></svg></g></svg></g></svg></g><defs></defs></svg><rect width="395.52" height="82.09809365867333" fill="none" stroke="none" visibility="hidden"></rect></g></svg></g></svg>